<svg width="220" height="23" viewBox="0 0 220 23" fill="none" xmlns="http://www.w3.org/2000/svg">
<path d="M23.8726 17.088V22.919L19.874 22.9595H19.6761C19.0822 22.919 18.4488 22.838 17.8549 22.7166C17.2611 22.5951 16.5089 22.3926 15.6775 22.0282C14.8461 21.7042 14.0543 21.2588 13.2625 20.7324C12.5103 20.206 11.7185 19.4771 10.8872 18.5458C10.0558 17.6144 9.34316 16.5211 8.70973 15.3063C8.07629 14.0916 7.48244 12.5933 6.96778 10.7711C6.45311 8.94894 6.05722 6.96479 5.81968 4.77817L5.78009 4.49471H0V0H21.6555V4.49471H10.2933L10.3329 4.85916C11.4018 12.9578 14.6482 17.0476 20.1115 17.088H23.8726Z" fill="url(#paint0_linear_22_184)"/>
<path d="M46.8346 17.1285C45.8845 17.1285 44.9343 16.9261 44.0237 16.4807C43.1132 16.0757 42.3214 15.4278 41.5692 14.618C40.817 13.8081 40.1835 12.7958 39.6689 11.6215L39.4314 11.1761H50.754V0L34.4826 0.0404831L29.138 0V9.02993H26.2084V11.1761H29.138V22.9595H34.2055V10.6092L34.7993 12.1074C35.3932 13.7271 36.1454 15.2254 37.0164 16.5211C37.8873 17.8169 38.7187 18.8697 39.5897 19.6391C40.4607 20.4085 41.3317 21.0564 42.2818 21.5828C43.232 22.1092 44.0633 22.4736 44.8155 22.6356C45.5677 22.838 46.2408 22.9595 46.8742 22.9595H52.971V17.1285H46.8346ZM34.2451 9.02993V4.53521H45.1719V9.02993H34.2451Z" fill="url(#paint1_linear_22_184)"/>
<path d="M80.8421 17.1285V22.9595H72.172C71.6969 22.919 71.2614 22.8785 70.7863 22.7975C70.3113 22.7166 69.7174 22.5546 69.0444 22.3521C68.3714 22.1497 67.6983 21.8662 67.0649 21.5018C66.4315 21.1778 65.7584 20.6919 65.0062 20.0845C64.254 19.4771 63.581 18.8292 62.9872 18.0194C62.3933 17.25 61.7599 16.2782 61.166 15.1444C60.5722 14.0106 60.0575 12.7553 59.6616 11.338L59.5824 11.1356H56.9695V9.02993H58.9886L58.9094 8.6655C58.6323 7.45071 58.4343 6.15493 58.276 4.81866L58.2364 4.53521H56.9299V0H78.6251V4.53521H62.7496L62.7892 4.85916C62.9872 6.27641 63.2643 7.61268 63.581 8.82747L63.6602 9.02993H75.4183V11.1761H64.4124L64.6103 11.6215C66.3127 15.2659 68.9652 17.088 72.5679 17.1285H80.8421V17.1285Z" fill="url(#paint2_linear_22_184)"/>
<path d="M108.753 22.919L108.714 22.1497C108.714 21.8662 108.714 21.5423 108.714 21.1374C108.714 20.7324 108.634 20.0845 108.516 19.1937C108.397 18.3028 108.199 17.3715 107.961 16.4807C107.724 15.5898 107.367 14.537 106.892 13.3222C106.417 12.1074 105.863 11.0141 105.23 9.96128C104.715 9.15142 104.161 8.34156 103.527 7.5722C102.894 6.80283 102.023 5.95248 100.914 5.02114C99.8058 4.0898 98.5785 3.27994 97.2721 2.59156C95.9656 1.90318 94.382 1.33627 92.4421 0.850358C90.5418 0.364442 88.4831 0.121487 86.3453 0.0809937V9.02995H83.5344V11.1761H86.3453V22.9595H91.3732V11.1761H100.083L100.241 11.4595C100.32 11.581 100.36 11.662 100.4 11.743C100.914 12.5528 101.35 13.4842 101.706 14.4965C102.062 15.5493 102.34 16.4402 102.498 17.25C102.656 18.0599 102.815 18.8698 102.894 19.7201C103.013 20.5705 103.052 21.1374 103.052 21.4613C103.052 21.7852 103.052 22.0282 103.052 22.2307V23H108.753V22.919ZM91.3732 9.02995V5.18311L91.7691 5.2641C94.1049 5.95248 96.124 7.0053 97.7471 8.50354L98.341 9.02995H91.3732Z" fill="url(#paint3_linear_22_184)"/>
<path d="M136.664 9.02993C135.436 14.375 133.18 18.2623 129.933 20.6109C127.796 22.1496 125.539 22.919 123.164 22.919H112.91V17.1285H123.164C124.826 17.088 126.331 16.6426 127.637 15.6708C128.983 14.7394 130.092 13.3627 130.963 11.581L131.161 11.1356H112.989C113.583 9.31339 114.335 7.69367 115.206 6.27641C116.077 4.85916 116.948 3.80634 117.859 2.99648C118.769 2.22711 119.719 1.57922 120.749 1.1338C121.778 0.647883 122.688 0.323944 123.52 0.202465C124.312 0.040493 125.143 0 125.935 0H134.565V4.49471H125.895C122.847 4.5352 120.511 5.87147 118.927 8.54401L118.65 9.02993H136.664Z" fill="url(#paint4_linear_22_184)"/>
<path d="M162.714 0V22.919H140.187V0H144.938V17.169H158.161V0H162.714Z" fill="url(#paint5_linear_22_184)"/>
<path d="M185.992 17.1285C185.042 17.1285 184.092 16.9261 183.182 16.4807C182.271 16.0757 181.44 15.4278 180.727 14.618C179.975 13.8081 179.341 12.7958 178.827 11.6215L178.589 11.1761H189.912V0L173.64 0.0404831L168.296 0V9.02993H165.366V11.1761H168.296V22.9595H173.363V10.6092L173.957 12.1074C174.551 13.7271 175.303 15.2254 176.174 16.5211C177.045 17.8169 177.877 18.8697 178.748 19.6391C179.618 20.4085 180.489 21.0564 181.44 21.5828C182.39 22.1092 183.221 22.4736 183.973 22.6356C184.726 22.838 185.399 22.9595 186.032 22.9595H192.129V17.1285H185.992ZM173.403 9.02993V4.53521H184.33V9.02993H173.403Z" fill="url(#paint6_linear_22_184)"/>
<path d="M220 17.1285V22.9595H211.33C210.855 22.919 210.419 22.8785 209.944 22.7975C209.469 22.7166 208.915 22.5546 208.202 22.3521C207.529 22.1497 206.856 21.8662 206.223 21.5018C205.589 21.1778 204.916 20.6919 204.164 20.0845C203.412 19.4771 202.739 18.8292 202.145 18.0194C201.551 17.25 200.918 16.2782 200.324 15.1444C199.73 14.0106 199.215 12.7553 198.82 11.338L198.74 11.1356H196.127V9.02993H198.147L198.067 8.6655C197.79 7.45071 197.592 6.15493 197.434 4.81866L197.394 4.53521H196.088V0H217.783V4.53521H201.908L201.947 4.85916C202.145 6.27641 202.422 7.61268 202.739 8.82747L202.818 9.02993H214.576V11.1761H203.57L203.768 11.6215C205.471 15.2659 208.123 17.088 211.726 17.1285H220V17.1285Z" fill="url(#paint7_linear_22_184)"/>
<defs>
<linearGradient id="paint0_linear_22_184" x1="18.6516" y1="11.4766" x2="-15.2236" y2="11.4766" gradientUnits="userSpaceOnUse">
<stop stop-color="#6D00C3"/>
<stop offset="0.9781"/>
</linearGradient>
<linearGradient id="paint1_linear_22_184" x1="23.7271" y1="11.4766" x2="67.5" y2="11.4766" gradientUnits="userSpaceOnUse">
<stop stop-color="#6D00C3"/>
<stop offset="0.9781"/>
</linearGradient>
<linearGradient id="paint2_linear_22_184" x1="84.3836" y1="11.4595" x2="40.5209" y2="11.4595" gradientUnits="userSpaceOnUse">
<stop stop-color="#6D00C3"/>
<stop offset="0.8673"/>
</linearGradient>
<linearGradient id="paint3_linear_22_184" x1="80.0949" y1="11.4938" x2="111.958" y2="11.4938" gradientUnits="userSpaceOnUse">
<stop stop-color="#6D00C3"/>
<stop offset="1"/>
</linearGradient>
<linearGradient id="paint4_linear_22_184" x1="142.109" y1="11.4766" x2="102.599" y2="11.4766" gradientUnits="userSpaceOnUse">
<stop stop-color="#6D00C3"/>
<stop offset="1"/>
</linearGradient>
<linearGradient id="paint5_linear_22_184" x1="134.842" y1="11.601" x2="173.067" y2="11.3275" gradientUnits="userSpaceOnUse">
<stop stop-color="#6D00C3"/>
<stop offset="1"/>
</linearGradient>
<linearGradient id="paint6_linear_22_184" x1="191.421" y1="11.4766" x2="164.705" y2="11.4766" gradientUnits="userSpaceOnUse">
<stop stop-color="#6D00C3"/>
<stop offset="1"/>
</linearGradient>
<linearGradient id="paint7_linear_22_184" x1="192.91" y1="11.4595" x2="216.736" y2="11.4595" gradientUnits="userSpaceOnUse">
<stop stop-color="#6D00C3"/>
<stop offset="1"/>
</linearGradient>
</defs>
</svg>
