<svg width="31" height="27" viewBox="0 0 31 27" fill="none" xmlns="http://www.w3.org/2000/svg">
<path d="M11.3332 16.375V19.25M19.6668 16.375V19.25M7.16643 10.625L12.7221 2M23.8336 10.625L18.2779 2M2.04128 12.4104C1.99023 12.1985 1.98648 11.9774 2.03031 11.7638C2.07415 11.5502 2.16443 11.3498 2.29429 11.1777C2.42415 11.0056 2.59018 10.8664 2.77978 10.7706C2.96938 10.6749 3.17757 10.6251 3.38854 10.625H27.6115C27.8224 10.6251 28.0306 10.6749 28.2202 10.7706C28.4098 10.8664 28.5759 11.0056 28.7057 11.1777C28.8356 11.3498 28.9258 11.5502 28.9697 11.7638C29.0135 11.9774 29.0098 12.1985 28.9587 12.4104L26.4434 22.8222C26.2931 23.4442 25.9464 23.9963 25.4582 24.3909C24.9699 24.7855 24.3683 24.9999 23.7488 25H7.25115C6.6317 24.9999 6.03006 24.7855 5.54184 24.3909C5.05362 23.9963 4.70685 23.4442 4.55663 22.8222L2.04128 12.4118V12.4104Z" stroke="#6B08BA" stroke-width="3" stroke-linecap="round" stroke-linejoin="round"/>
</svg>
