<svg width="24" height="27" viewBox="0 0 24 27" fill="none" xmlns="http://www.w3.org/2000/svg">
<path d="M17.7245 15.8H18.1275C18.9645 15.8002 19.7726 16.1075 20.4 16.664C21.0274 17.2205 21.4309 17.9879 21.5347 18.8222L21.9823 22.4148C22.0226 22.7384 21.9939 23.067 21.8981 23.3786C21.8023 23.6903 21.6416 23.9779 21.4266 24.2224C21.2117 24.4669 20.9475 24.6626 20.6515 24.7967C20.3554 24.9308 20.0344 25.0001 19.7097 25H4.29029C3.96557 25.0001 3.64456 24.9308 3.34855 24.7967C3.05254 24.6626 2.7883 24.4669 2.57338 24.2224C2.35845 23.9779 2.19775 23.6903 2.10194 23.3786C2.00613 23.067 1.97741 22.7384 2.01767 22.4148L2.46418 18.8222C2.56802 17.9876 2.97184 17.2198 3.59972 16.6632C4.2276 16.1067 5.03627 15.7997 5.87367 15.8H6.27553M17.7245 7.75C17.7245 10.9256 15.1615 13.5 12 13.5C8.83846 13.5 6.27553 10.9256 6.27553 7.75C6.27553 4.57436 8.83846 2 12 2C15.1615 2 17.7245 4.57436 17.7245 7.75Z" stroke="#6B08BA" stroke-width="3" stroke-linecap="round" stroke-linejoin="round"/>
</svg>
